# xmcd
#
# Track frame offsets:
#	183
#	13908
#	25708
#	37750
#	50308
#	63415
#	73658
#	84708
#	96533
#	115083
#	127358
#	138358
#	151733
#	162133
#	176158
#	187733
#	199558
#	209858
#
# Disc length: 2960 seconds
#
# Revision: 1
# Processed by: cddbd v1.5.1PL0 Copyright (c) Steve Scherf et al.
# Submitted via: audiograbber 1.83.01
#
DISCID=fb0b8e12
DTITLE=Dave Dudley - Six Days On The Road
DYEAR=1900
DGENRE=Country
TTITLE0=I Was A Country Before Barbara Mamdrell
TTITLE1=Six Days On The Road
TTITLE2=Eagles Fly Alone
TTITLE3=There Ain´T No Easy Run
TTITLE4=I Can'T Remember You
TTITLE5=Don'T Need The Rain
TTITLE6=My Town
TTITLE7=Where Did All The Cowboys Go
TTITLE8=She Dosn'T Live Here Anymore
TTITLE9=Wave At Em Billy Boy
TTITLE10=Get Me Back To Tennessee
TTITLE11=A Friend Named Wine
TTITLE12=Been Arround The Horn
TTITLE13=Morning Sun
TTITLE14=Sentimental Journey
TTITLE15=Mary Lou, You Took The Party With You
TTITLE16=Truck Drivin' Sun Of Gun
TTITLE17=Homer And Cole
EXTD=
EXTT0=
EXTT1=
EXTT2=
EXTT3=
EXTT4=
EXTT5=
EXTT6=
EXTT7=
EXTT8=
EXTT9=
EXTT10=
EXTT11=
EXTT12=
EXTT13=
EXTT14=
EXTT15=
EXTT16=
EXTT17=
PLAYORDER=
